<svg id="visual" viewBox="0 0 900 600" width="900" height="600" xmlns="http://www.w3.org/2000/svg" xmlns:xlink="http://www.w3.org/1999/xlink" version="1.1"><rect x="0" y="0" width="900" height="600" fill="#fff"></rect><path d="M0 451L11.5 433.3C23 415.7 46 380.3 69 366.2C92 352 115 359 138.2 376.8C161.3 394.7 184.7 423.3 207.8 436.3C231 449.3 254 446.7 277 430.7C300 414.7 323 385.3 346 391.3C369 397.3 392 438.7 415.2 454.3C438.3 470 461.7 460 484.8 455.8C508 451.7 531 453.3 554 452C577 450.7 600 446.3 623 431.5C646 416.7 669 391.3 692.2 381C715.3 370.7 738.7 375.3 761.8 377.8C785 380.3 808 380.7 831 391.5C854 402.3 877 423.7 888.5 434.3L900 445L900 601L888.5 601C877 601 854 601 831 601C808 601 785 601 761.8 601C738.7 601 715.3 601 692.2 601C669 601 646 601 623 601C600 601 577 601 554 601C531 601 508 601 484.8 601C461.7 601 438.3 601 415.2 601C392 601 369 601 346 601C323 601 300 601 277 601C254 601 231 601 207.8 601C184.7 601 161.3 601 138.2 601C115 601 92 601 69 601C46 601 23 601 11.5 601L0 601Z" fill="#4ade80"></path><path d="M0 495L11.5 488.7C23 482.3 46 469.7 69 464C92 458.3 115 459.7 138.2 459.3C161.3 459 184.7 457 207.8 466C231 475 254 495 277 497.3C300 499.7 323 484.3 346 467.5C369 450.7 392 432.3 415.2 443.7C438.3 455 461.7 496 484.8 513.5C508 531 531 525 554 526.8C577 528.7 600 538.3 623 534.3C646 530.3 669 512.7 692.2 494.3C715.3 476 738.7 457 761.8 444.7C785 432.3 808 426.7 831 423.2C854 419.7 877 418.3 888.5 417.7L900 417L900 601L888.5 601C877 601 854 601 831 601C808 601 785 601 761.8 601C738.7 601 715.3 601 692.2 601C669 601 646 601 623 601C600 601 577 601 554 601C531 601 508 601 484.8 601C461.7 601 438.3 601 415.2 601C392 601 369 601 346 601C323 601 300 601 277 601C254 601 231 601 207.8 601C184.7 601 161.3 601 138.2 601C115 601 92 601 69 601C46 601 23 601 11.5 601L0 601Z" fill="#007e96"></path><path d="M0 571L11.5 557.5C23 544 46 517 69 511.5C92 506 115 522 138.2 530.8C161.3 539.7 184.7 541.3 207.8 543C231 544.7 254 546.3 277 550C300 553.7 323 559.3 346 561.7C369 564 392 563 415.2 561.2C438.3 559.3 461.7 556.7 484.8 558.8C508 561 531 568 554 563.7C577 559.3 600 543.7 623 539C646 534.3 669 540.7 692.2 533.3C715.3 526 738.7 505 761.8 493C785 481 808 478 831 485.2C854 492.3 877 509.7 888.5 518.3L900 527L900 601L888.5 601C877 601 854 601 831 601C808 601 785 601 761.8 601C738.7 601 715.3 601 692.2 601C669 601 646 601 623 601C600 601 577 601 554 601C531 601 508 601 484.8 601C461.7 601 438.3 601 415.2 601C392 601 369 601 346 601C323 601 300 601 277 601C254 601 231 601 207.8 601C184.7 601 161.3 601 138.2 601C115 601 92 601 69 601C46 601 23 601 11.5 601L0 601Z" fill="#27272a"></path></svg>